<svg id="Layer_1" data-name="Layer 1" xmlns="http://www.w3.org/2000/svg" viewBox="0 0 600 400">
  <defs>
    <style>
      .cls-1 {
        fill: #e5e5e5;
      }

      .cls-2 {
        fill: none;
        stroke: #4c5151;
      }

      .cls-2, .cls-3, .cls-4, .cls-5 {
        stroke-miterlimit: 10;
      }

      .cls-3, .cls-6 {
        fill: #82a39d;
      }

      .cls-3, .cls-4, .cls-5, .cls-6, .cls-7 {
        stroke: #343838;
      }

      .cls-4, .cls-7 {
        fill: #2c4c47;
      }

      .cls-5 {
        fill: #517570;
      }

      .cls-6 {
        stroke-miterlimit: 10.0004;
      }

      .cls-7 {
        stroke-miterlimit: 10;
      }
    </style>
  </defs>
  <rect id="Background" class="cls-1" width="600" height="400"/>
  <g id="Parents">
    <line id="Tier3-Parent2-2" class="cls-2" x1="139.76" y1="113.76" x2="159.68" y2="181.6"/>
    <line id="Tier3-Parent2" class="cls-2" x1="139.76" y1="113.76" x2="187.76" y2="113.76"/>
    <line id="Tier3-Parent1-2" class="cls-2" x1="460.24" y1="113.76" x2="440.32" y2="181.6"/>
    <line id="Tier3-Parent1" class="cls-2" x1="460.24" y1="113.76" x2="412.24" y2="113.76"/>
    <line id="Tier2-Parent16" class="cls-2" x1="281.6" y1="340.32" x2="300" y2="296"/>
    <line id="Tier2-Parent15-2" class="cls-2" x1="213.76" y1="312.24" x2="300" y2="296"/>
    <line id="Tier2-Parent15" class="cls-2" x1="232.08" y1="267.92" x2="213.76" y2="312.24"/>
    <line id="Tier2-Parent14" class="cls-2" x1="232.08" y1="267.92" x2="187.76" y2="286.24"/>
    <line id="Tier2-Parent13" class="cls-2" x1="204" y1="200" x2="159.68" y2="218.4"/>
    <line id="Tier2-Parent12" class="cls-2" x1="204" y1="200" x2="159.68" y2="181.6"/>
    <line id="Tier2-Parent11" class="cls-2" x1="232.16" y1="132.08" x2="187.76" y2="113.76"/>
    <line id="Tier2-Parent10" class="cls-2" x1="232.08" y1="132.08" x2="213.76" y2="87.76"/>
    <line id="Tier2-Parent9" class="cls-2" x1="300" y1="104" x2="281.6" y2="59.68"/>
    <line id="Tier2-Parent8" class="cls-2" x1="300" y1="104" x2="318.4" y2="59.68"/>
    <line id="Tier2-Parent7" class="cls-2" x1="367.92" y1="132.08" x2="386.24" y2="87.76"/>
    <line id="Tier2-Parent6" class="cls-2" x1="367.92" y1="132.08" x2="412.24" y2="113.76"/>
    <line id="Tier2-Parent5" class="cls-2" x1="396" y1="200" x2="440.32" y2="181.6"/>
    <line id="Tier2-Parent4" class="cls-2" x1="396" y1="200" x2="440.32" y2="218.4"/>
    <line id="Tier2-Parent3" class="cls-2" x1="367.92" y1="267.92" x2="412.24" y2="286.24"/>
    <line id="Tier2-Parent2-2" class="cls-2" x1="386.24" y1="312.24" x2="300" y2="296"/>
    <line id="Tier2-Parent2" class="cls-2" x1="367.92" y1="267.92" x2="386.24" y2="312.24"/>
    <line id="Tier2-Parent1" class="cls-2" x1="318.4" y1="340.32" x2="300" y2="296"/>
    <line id="Tier1-Parent8" class="cls-2" x1="232.08" y1="267.92" x2="300" y2="200"/>
    <line id="Tier1-Parent7" class="cls-2" x1="204" y1="200" x2="300" y2="200"/>
    <line id="Tier1-Parent6" class="cls-2" x1="232.08" y1="132.08" x2="300" y2="200"/>
    <line id="Tier1-Parent5" class="cls-2" x1="300" y1="200" x2="300" y2="104"/>
    <line id="Tier1-Parent4" class="cls-2" x1="367.92" y1="132.08" x2="300" y2="200"/>
    <line id="Tier1-Parent3" class="cls-2" x1="396" y1="200" x2="300" y2="200"/>
    <line id="Tier1-Parent2" class="cls-2" x1="367.92" y1="267.92" x2="300" y2="200"/>
    <line id="Tier1-Parent1" class="cls-2" x1="300" y1="296" x2="300" y2="200"/>
  </g>
  <g id="Heapverses">
    <circle id="Tier3-Heapverse2" class="cls-3" cx="139.36" cy="114.32" r="12"/>
    <circle id="Tier3-Heapverse1" class="cls-3" cx="460.32" cy="113.76" r="12"/>
    <circle id="Tier2-Heapverse16" class="cls-4" cx="281.6" cy="340.32" r="12"/>
    <circle id="Tier2-Heapverse15" class="cls-3" cx="213.76" cy="312.24" r="12"/>
    <circle id="Tier2-Heapverse14" class="cls-5" cx="187.76" cy="286.24" r="12"/>
    <circle id="Tier2-Heapverse13" class="cls-4" cx="159.68" cy="218.4" r="12"/>
    <circle id="Tier2-Heapverse12" class="cls-4" cx="160.16" cy="180.96" r="12"/>
    <circle id="Tier2-Heapverse11" class="cls-5" cx="187.76" cy="113.76" r="12"/>
    <circle id="Tier2-Heapverse10" class="cls-3" cx="213.76" cy="87.76" r="12"/>
    <circle id="Tier2-Heapverse9" class="cls-4" cx="281.6" cy="59.68" r="12"/>
    <circle id="Tier2-Heapverse8" class="cls-4" cx="318.4" cy="59.36" r="12"/>
    <circle id="Tier2-Heapverse7" class="cls-3" cx="386.24" cy="87.76" r="12"/>
    <circle id="Tier2-Heapverse6" class="cls-5" cx="412.24" cy="113.76" r="12"/>
    <circle id="Tier2-Heapverse5" class="cls-4" cx="440.32" cy="181.6" r="12"/>
    <circle id="Tier2-Heapverse4" class="cls-4" cx="440.32" cy="218.4" r="12"/>
    <circle id="Tier2-Heapverse3" class="cls-5" cx="412.24" cy="286.24" r="12"/>
    <circle id="Tier2-Heapverse2" class="cls-3" cx="385.2" cy="312.24" r="12"/>
    <circle id="Tier2-Heapverse1" class="cls-4" cx="318.4" cy="340.32" r="12"/>
    <circle id="Tier1-Heapverse8" class="cls-4" cx="232.08" cy="267.92" r="24"/>
    <circle id="Tier1-Heapverse7" class="cls-5" cx="204" cy="200" r="24"/>
    <circle id="Tier1-Heapverse6" class="cls-4" cx="232.08" cy="132.08" r="24"/>
    <circle id="Tier1-Heapverse5" class="cls-3" cx="300" cy="104" r="24"/>
    <circle id="Tier1-Heapverse4" class="cls-4" cx="367.92" cy="132.08" r="24"/>
    <circle id="Tier1-Heapverse3" class="cls-5" cx="396" cy="200" r="24"/>
    <circle id="Tier1-Heapverse2" class="cls-4" cx="367.92" cy="267.92" r="24"/>
    <circle id="Tier1-Heapverse1" class="cls-3" cx="300" cy="296" r="24"/>
    <circle id="Tier0-Heapverse3" class="cls-6" cx="286.1517" cy="191.9759" r="24.0009"/>
    <circle id="Tier0-Heapverse2" class="cls-3" cx="313.84" cy="192" r="24"/>
    <circle id="Tier0-Heapverse1" class="cls-5" cx="300" cy="216" r="24"/>
  </g>
  <g id="Heaps">
    <circle id="Tier3-Heap2" class="cls-3" cx="139.36" cy="114.32" r="8"/>
    <circle id="Tier3-Heap1" class="cls-3" cx="460.32" cy="113.76" r="8"/>
    <circle id="Tier2-Heap16" class="cls-5" cx="281.6" cy="340.32" r="8"/>
    <circle id="Tier2-Heap15" class="cls-3" cx="213.76" cy="312" r="8"/>
    <circle id="Tier2-Heap14" class="cls-3" cx="187.76" cy="286.24" r="8"/>
    <circle id="Tier2-Heap13" class="cls-4" cx="159.68" cy="218.4" r="8"/>
    <circle id="Tier2-Heap12" class="cls-4" cx="160.16" cy="180.96" r="8"/>
    <circle id="Tier2-Heap11" class="cls-5" cx="187.76" cy="113.76" r="8"/>
    <circle id="Tier2-Heap10" class="cls-5" cx="213.76" cy="88" r="8"/>
    <circle id="Tier2-Heap9" class="cls-5" cx="281.6" cy="59.68" r="8"/>
    <circle id="Tier2-Heap8" class="cls-5" cx="318.4" cy="59.68" r="8"/>
    <circle id="Tier2-Heap7" class="cls-5" cx="386.24" cy="88" r="8"/>
    <circle id="Tier2-Heap6" class="cls-5" cx="412.24" cy="113.76" r="8"/>
    <circle id="Tier2-Heap5" class="cls-4" cx="440.32" cy="181.6" r="8"/>
    <circle id="Tier2-Heap4" class="cls-4" cx="440.32" cy="218.4" r="8"/>
    <circle id="Tier2-Heap3" class="cls-3" cx="412.24" cy="286.24" r="8"/>
    <circle id="Tier2-Heap2" class="cls-3" cx="385.2" cy="312.24" r="8"/>
    <circle id="Tier2-Heap1" class="cls-5" cx="318.4" cy="340.32" r="8"/>
    <circle id="Tier1-Heap8" class="cls-3" cx="232.08" cy="267.92" r="16"/>
    <circle id="Tier1-Heap7" class="cls-4" cx="204" cy="200" r="16"/>
    <circle id="Tier1-Heap6" class="cls-3" cx="232.08" cy="132.08" r="16"/>
    <circle id="Tier1-Heap5" class="cls-4" cx="300" cy="104" r="16"/>
    <circle id="Tier1-Heap4" class="cls-3" cx="367.92" cy="132.08" r="16"/>
    <circle id="Tier1-Heap3" class="cls-4" cx="396" cy="200" r="16"/>
    <circle id="Tier1-Heap2" class="cls-3" cx="367.92" cy="267.92" r="16"/>
    <circle id="Tier1-Heap1" class="cls-4" cx="300" cy="296" r="16"/>
    <circle id="Tier0-Heap3" class="cls-7" cx="286.1601" cy="192.0002" r="16" transform="translate(13.5209 402.7595) rotate(-71.565)"/>
    <circle id="Tier0-Heap2" class="cls-4" cx="313.84" cy="192" r="16"/>
    <circle id="Tier0-Heap1" class="cls-4" cx="300" cy="216" r="16"/>
  </g>
</svg>
