<svg id="Cumulativerse" xmlns="http://www.w3.org/2000/svg" viewBox="0 0 1400 350">
  <defs>
    <style>
      .cls-1 {
        fill: #e5e5e5;
      }

      .cls-2 {
        fill: none;
        stroke: #4c5151;
      }

      .cls-2, .cls-3, .cls-4, .cls-5 {
        stroke-miterlimit: 10;
      }

      .cls-3, .cls-6 {
        fill: #82a39d;
      }

      .cls-3, .cls-4, .cls-5, .cls-6, .cls-7 {
        stroke: #343838;
      }

      .cls-4, .cls-7 {
        fill: #2c4c47;
      }

      .cls-5 {
        fill: #517570;
      }

      .cls-6 {
        stroke-miterlimit: 10.0004;
      }

      .cls-7 {
        stroke-miterlimit: 10;
      }

      .cls-8 {
        font-size: 50px;
        fill: #606060;
        font-family: Algerian;
      }
    </style>
  </defs>
  <g id="Background">
    <rect class="cls-1" width="1400" height="350"/>
  </g>
  <g id="Cumulativerse-Left">
    <g id="Parents">
      <line id="Tier3-Parent2-2" class="cls-2" x1="139.92" y1="88.92" x2="159.84" y2="156.76"/>
      <line id="Tier3-Parent2" class="cls-2" x1="139.92" y1="88.92" x2="187.92" y2="88.92"/>
      <line id="Tier3-Parent1-2" class="cls-2" x1="460.4" y1="88.92" x2="440.48" y2="156.76"/>
      <line id="Tier3-Parent1" class="cls-2" x1="460.4" y1="88.92" x2="412.4" y2="88.92"/>
      <line id="Tier2-Parent16" class="cls-2" x1="281.76" y1="315.48" x2="300.16" y2="271.16"/>
      <line id="Tier2-Parent15-2" class="cls-2" x1="213.92" y1="287.4" x2="300.16" y2="271.16"/>
      <line id="Tier2-Parent15" class="cls-2" x1="232.24" y1="243.08" x2="213.92" y2="287.4"/>
      <line id="Tier2-Parent14" class="cls-2" x1="232.24" y1="243.08" x2="187.92" y2="261.4"/>
      <line id="Tier2-Parent13" class="cls-2" x1="204.16" y1="175.16" x2="159.84" y2="193.56"/>
      <line id="Tier2-Parent12" class="cls-2" x1="204.16" y1="175.16" x2="159.84" y2="156.76"/>
      <line id="Tier2-Parent11" class="cls-2" x1="232.32" y1="107.24" x2="187.92" y2="88.92"/>
      <line id="Tier2-Parent10" class="cls-2" x1="232.24" y1="107.24" x2="213.92" y2="62.92"/>
      <line id="Tier2-Parent9" class="cls-2" x1="300.16" y1="79.16" x2="281.76" y2="34.84"/>
      <line id="Tier2-Parent8" class="cls-2" x1="300.16" y1="79.16" x2="318.56" y2="34.84"/>
      <line id="Tier2-Parent7" class="cls-2" x1="368.08" y1="107.24" x2="386.4" y2="62.92"/>
      <line id="Tier2-Parent6" class="cls-2" x1="368.08" y1="107.24" x2="412.4" y2="88.92"/>
      <line id="Tier2-Parent5" class="cls-2" x1="396.16" y1="175.16" x2="440.48" y2="156.76"/>
      <line id="Tier2-Parent4" class="cls-2" x1="396.16" y1="175.16" x2="440.48" y2="193.56"/>
      <line id="Tier2-Parent3" class="cls-2" x1="368.08" y1="243.08" x2="412.4" y2="261.4"/>
      <line id="Tier2-Parent2-2" class="cls-2" x1="386.4" y1="287.4" x2="300.16" y2="271.16"/>
      <line id="Tier2-Parent2" class="cls-2" x1="368.08" y1="243.08" x2="386.4" y2="287.4"/>
      <line id="Tier2-Parent1" class="cls-2" x1="318.56" y1="315.48" x2="300.16" y2="271.16"/>
      <line id="Tier1-Parent8" class="cls-2" x1="232.24" y1="243.08" x2="300.16" y2="175.16"/>
      <line id="Tier1-Parent7" class="cls-2" x1="204.16" y1="175.16" x2="300.16" y2="175.16"/>
      <line id="Tier1-Parent6" class="cls-2" x1="232.24" y1="107.24" x2="300.16" y2="175.16"/>
      <line id="Tier1-Parent5" class="cls-2" x1="300.16" y1="175.16" x2="300.16" y2="79.16"/>
      <line id="Tier1-Parent4" class="cls-2" x1="368.08" y1="107.24" x2="300.16" y2="175.16"/>
      <line id="Tier1-Parent3" class="cls-2" x1="396.16" y1="175.16" x2="300.16" y2="175.16"/>
      <line id="Tier1-Parent2" class="cls-2" x1="368.08" y1="243.08" x2="300.16" y2="175.16"/>
      <line id="Tier1-Parent1" class="cls-2" x1="300.16" y1="271.16" x2="300.16" y2="175.16"/>
    </g>
    <g id="Heapverses">
      <circle id="Tier3-Heapverse2" class="cls-3" cx="139.52" cy="89.48" r="12"/>
      <circle id="Tier3-Heapverse1" class="cls-3" cx="460.48" cy="88.92" r="12"/>
      <circle id="Tier2-Heapverse16" class="cls-4" cx="281.76" cy="315.48" r="12"/>
      <circle id="Tier2-Heapverse15" class="cls-3" cx="213.92" cy="287.4" r="12"/>
      <circle id="Tier2-Heapverse14" class="cls-5" cx="187.92" cy="261.4" r="12"/>
      <circle id="Tier2-Heapverse13" class="cls-4" cx="159.84" cy="193.56" r="12"/>
      <circle id="Tier2-Heapverse12" class="cls-4" cx="160.32" cy="156.12" r="12"/>
      <circle id="Tier2-Heapverse11" class="cls-5" cx="187.92" cy="88.92" r="12"/>
      <circle id="Tier2-Heapverse10" class="cls-3" cx="213.92" cy="62.92" r="12"/>
      <circle id="Tier2-Heapverse9" class="cls-4" cx="281.76" cy="34.84" r="12"/>
      <circle id="Tier2-Heapverse8" class="cls-4" cx="318.56" cy="34.52" r="12"/>
      <circle id="Tier2-Heapverse7" class="cls-3" cx="386.4" cy="62.92" r="12"/>
      <circle id="Tier2-Heapverse6" class="cls-5" cx="412.4" cy="88.92" r="12"/>
      <circle id="Tier2-Heapverse5" class="cls-4" cx="440.48" cy="156.76" r="12"/>
      <circle id="Tier2-Heapverse4" class="cls-4" cx="440.48" cy="193.56" r="12"/>
      <circle id="Tier2-Heapverse3" class="cls-5" cx="412.4" cy="261.4" r="12"/>
      <circle id="Tier2-Heapverse2" class="cls-3" cx="385.36" cy="287.4" r="12"/>
      <circle id="Tier2-Heapverse1" class="cls-4" cx="318.56" cy="315.48" r="12"/>
      <circle id="Tier1-Heapverse8" class="cls-4" cx="232.24" cy="243.08" r="24"/>
      <circle id="Tier1-Heapverse7" class="cls-5" cx="204.16" cy="175.16" r="24"/>
      <circle id="Tier1-Heapverse6" class="cls-4" cx="232.24" cy="107.24" r="24"/>
      <circle id="Tier1-Heapverse5" class="cls-3" cx="300.16" cy="79.16" r="24"/>
      <circle id="Tier1-Heapverse4" class="cls-4" cx="368.08" cy="107.24" r="24"/>
      <circle id="Tier1-Heapverse3" class="cls-5" cx="396.16" cy="175.16" r="24"/>
      <circle id="Tier1-Heapverse2" class="cls-4" cx="368.08" cy="243.08" r="24"/>
      <circle id="Tier1-Heapverse1" class="cls-3" cx="300.16" cy="271.16" r="24"/>
      <circle id="Tier0-Heapverse3" class="cls-6" cx="286.3117" cy="167.1359" r="24.0009"/>
      <circle id="Tier0-Heapverse2" class="cls-3" cx="314" cy="167.16" r="24"/>
      <circle id="Tier0-Heapverse1" class="cls-5" cx="300.16" cy="191.16" r="24"/>
    </g>
    <g id="Heaps">
      <circle id="Tier3-Heap2" class="cls-3" cx="139.52" cy="89.48" r="8"/>
      <circle id="Tier3-Heap1" class="cls-3" cx="460.48" cy="88.92" r="8"/>
      <circle id="Tier2-Heap16" class="cls-5" cx="281.76" cy="315.48" r="8"/>
      <circle id="Tier2-Heap15" class="cls-3" cx="213.92" cy="287.16" r="8"/>
      <circle id="Tier2-Heap14" class="cls-3" cx="187.92" cy="261.4" r="8"/>
      <circle id="Tier2-Heap13" class="cls-4" cx="159.84" cy="193.56" r="8"/>
      <circle id="Tier2-Heap12" class="cls-4" cx="160.32" cy="156.12" r="8"/>
      <circle id="Tier2-Heap11" class="cls-5" cx="187.92" cy="88.92" r="8"/>
      <circle id="Tier2-Heap10" class="cls-5" cx="213.92" cy="63.16" r="8"/>
      <circle id="Tier2-Heap9" class="cls-5" cx="281.76" cy="34.84" r="8"/>
      <circle id="Tier2-Heap8" class="cls-5" cx="318.56" cy="34.84" r="8"/>
      <circle id="Tier2-Heap7" class="cls-5" cx="386.4" cy="63.16" r="8"/>
      <circle id="Tier2-Heap6" class="cls-5" cx="412.4" cy="88.92" r="8"/>
      <circle id="Tier2-Heap5" class="cls-4" cx="440.48" cy="156.76" r="8"/>
      <circle id="Tier2-Heap4" class="cls-4" cx="440.48" cy="193.56" r="8"/>
      <circle id="Tier2-Heap3" class="cls-3" cx="412.4" cy="261.4" r="8"/>
      <circle id="Tier2-Heap2" class="cls-3" cx="385.36" cy="287.4" r="8"/>
      <circle id="Tier2-Heap1" class="cls-5" cx="318.56" cy="315.48" r="8"/>
      <circle id="Tier1-Heap8" class="cls-3" cx="232.24" cy="243.08" r="16"/>
      <circle id="Tier1-Heap7" class="cls-4" cx="204.16" cy="175.16" r="16"/>
      <circle id="Tier1-Heap6" class="cls-3" cx="232.24" cy="107.24" r="16"/>
      <circle id="Tier1-Heap5" class="cls-4" cx="300.16" cy="79.16" r="16"/>
      <circle id="Tier1-Heap4" class="cls-3" cx="368.08" cy="107.24" r="16"/>
      <circle id="Tier1-Heap3" class="cls-4" cx="396.16" cy="175.16" r="16"/>
      <circle id="Tier1-Heap2" class="cls-3" cx="368.08" cy="243.08" r="16"/>
      <circle id="Tier1-Heap1" class="cls-4" cx="300.16" cy="271.16" r="16"/>
      <circle id="Tier0-Heap3" class="cls-7" cx="286.3201" cy="167.1602" r="16" transform="translate(37.1956 385.9264) rotate(-71.565)"/>
      <circle id="Tier0-Heap2" class="cls-4" cx="314" cy="167.16" r="16"/>
      <circle id="Tier0-Heap1" class="cls-4" cx="300.16" cy="191.16" r="16"/>
    </g>
  </g>
  <text id="Name" class="cls-8" transform="translate(504 191.3496)">CUMULATIVERSE</text>
  <g id="Cumulativerse-Right">
    <g id="Parents-2" data-name="Parents">
      <line id="Tier3-Parent2-2-2" data-name="Tier3-Parent2-2" class="cls-2" x1="939.92" y1="88.92" x2="959.84" y2="156.76"/>
      <line id="Tier3-Parent2-2-3" data-name="Tier3-Parent2" class="cls-2" x1="939.92" y1="88.92" x2="987.92" y2="88.92"/>
      <line id="Tier3-Parent1-2-2" data-name="Tier3-Parent1-2" class="cls-2" x1="1260.4" y1="88.92" x2="1240.48" y2="156.76"/>
      <line id="Tier3-Parent1-2-3" data-name="Tier3-Parent1" class="cls-2" x1="1260.4" y1="88.92" x2="1212.4" y2="88.92"/>
      <line id="Tier2-Parent16-2" data-name="Tier2-Parent16" class="cls-2" x1="1081.76" y1="315.48" x2="1100.16" y2="271.16"/>
      <line id="Tier2-Parent15-2-2" data-name="Tier2-Parent15-2" class="cls-2" x1="1013.92" y1="287.4" x2="1100.16" y2="271.16"/>
      <line id="Tier2-Parent15-2-3" data-name="Tier2-Parent15" class="cls-2" x1="1032.24" y1="243.08" x2="1013.92" y2="287.4"/>
      <line id="Tier2-Parent14-2" data-name="Tier2-Parent14" class="cls-2" x1="1032.24" y1="243.08" x2="987.92" y2="261.4"/>
      <line id="Tier2-Parent13-2" data-name="Tier2-Parent13" class="cls-2" x1="1004.16" y1="175.16" x2="959.84" y2="193.56"/>
      <line id="Tier2-Parent12-2" data-name="Tier2-Parent12" class="cls-2" x1="1004.16" y1="175.16" x2="959.84" y2="156.76"/>
      <line id="Tier2-Parent11-2" data-name="Tier2-Parent11" class="cls-2" x1="1032.32" y1="107.24" x2="987.92" y2="88.92"/>
      <line id="Tier2-Parent10-2" data-name="Tier2-Parent10" class="cls-2" x1="1032.24" y1="107.24" x2="1013.92" y2="62.92"/>
      <line id="Tier2-Parent9-2" data-name="Tier2-Parent9" class="cls-2" x1="1100.16" y1="79.16" x2="1081.76" y2="34.84"/>
      <line id="Tier2-Parent8-2" data-name="Tier2-Parent8" class="cls-2" x1="1100.16" y1="79.16" x2="1118.56" y2="34.84"/>
      <line id="Tier2-Parent7-2" data-name="Tier2-Parent7" class="cls-2" x1="1168.08" y1="107.24" x2="1186.4" y2="62.92"/>
      <line id="Tier2-Parent6-2" data-name="Tier2-Parent6" class="cls-2" x1="1168.08" y1="107.24" x2="1212.4" y2="88.92"/>
      <line id="Tier2-Parent5-2" data-name="Tier2-Parent5" class="cls-2" x1="1196.16" y1="175.16" x2="1240.48" y2="156.76"/>
      <line id="Tier2-Parent4-2" data-name="Tier2-Parent4" class="cls-2" x1="1196.16" y1="175.16" x2="1240.48" y2="193.56"/>
      <line id="Tier2-Parent3-2" data-name="Tier2-Parent3" class="cls-2" x1="1168.08" y1="243.08" x2="1212.4" y2="261.4"/>
      <line id="Tier2-Parent2-2-2" data-name="Tier2-Parent2-2" class="cls-2" x1="1186.4" y1="287.4" x2="1100.16" y2="271.16"/>
      <line id="Tier2-Parent2-2-3" data-name="Tier2-Parent2" class="cls-2" x1="1168.08" y1="243.08" x2="1186.4" y2="287.4"/>
      <line id="Tier2-Parent1-2" data-name="Tier2-Parent1" class="cls-2" x1="1118.56" y1="315.48" x2="1100.16" y2="271.16"/>
      <line id="Tier1-Parent8-2" data-name="Tier1-Parent8" class="cls-2" x1="1032.24" y1="243.08" x2="1100.16" y2="175.16"/>
      <line id="Tier1-Parent7-2" data-name="Tier1-Parent7" class="cls-2" x1="1004.16" y1="175.16" x2="1100.16" y2="175.16"/>
      <line id="Tier1-Parent6-2" data-name="Tier1-Parent6" class="cls-2" x1="1032.24" y1="107.24" x2="1100.16" y2="175.16"/>
      <line id="Tier1-Parent5-2" data-name="Tier1-Parent5" class="cls-2" x1="1100.16" y1="175.16" x2="1100.16" y2="79.16"/>
      <line id="Tier1-Parent4-2" data-name="Tier1-Parent4" class="cls-2" x1="1168.08" y1="107.24" x2="1100.16" y2="175.16"/>
      <line id="Tier1-Parent3-2" data-name="Tier1-Parent3" class="cls-2" x1="1196.16" y1="175.16" x2="1100.16" y2="175.16"/>
      <line id="Tier1-Parent2-2" data-name="Tier1-Parent2" class="cls-2" x1="1168.08" y1="243.08" x2="1100.16" y2="175.16"/>
      <line id="Tier1-Parent1-2" data-name="Tier1-Parent1" class="cls-2" x1="1100.16" y1="271.16" x2="1100.16" y2="175.16"/>
    </g>
    <g id="Heapverses-2" data-name="Heapverses">
      <circle id="Tier3-Heapverse2-2" data-name="Tier3-Heapverse2" class="cls-3" cx="939.52" cy="89.48" r="12"/>
      <circle id="Tier3-Heapverse1-2" data-name="Tier3-Heapverse1" class="cls-3" cx="1260.48" cy="88.92" r="12"/>
      <circle id="Tier2-Heapverse16-2" data-name="Tier2-Heapverse16" class="cls-4" cx="1081.76" cy="315.48" r="12"/>
      <circle id="Tier2-Heapverse15-2" data-name="Tier2-Heapverse15" class="cls-3" cx="1013.92" cy="287.4" r="12"/>
      <circle id="Tier2-Heapverse14-2" data-name="Tier2-Heapverse14" class="cls-5" cx="987.92" cy="261.4" r="12"/>
      <circle id="Tier2-Heapverse13-2" data-name="Tier2-Heapverse13" class="cls-4" cx="959.84" cy="193.56" r="12"/>
      <circle id="Tier2-Heapverse12-2" data-name="Tier2-Heapverse12" class="cls-4" cx="960.32" cy="156.12" r="12"/>
      <circle id="Tier2-Heapverse11-2" data-name="Tier2-Heapverse11" class="cls-5" cx="987.92" cy="88.92" r="12"/>
      <circle id="Tier2-Heapverse10-2" data-name="Tier2-Heapverse10" class="cls-3" cx="1013.92" cy="62.92" r="12"/>
      <circle id="Tier2-Heapverse9-2" data-name="Tier2-Heapverse9" class="cls-4" cx="1081.76" cy="34.84" r="12"/>
      <circle id="Tier2-Heapverse8-2" data-name="Tier2-Heapverse8" class="cls-4" cx="1118.56" cy="34.52" r="12"/>
      <circle id="Tier2-Heapverse7-2" data-name="Tier2-Heapverse7" class="cls-3" cx="1186.4" cy="62.92" r="12"/>
      <circle id="Tier2-Heapverse6-2" data-name="Tier2-Heapverse6" class="cls-5" cx="1212.4" cy="88.92" r="12"/>
      <circle id="Tier2-Heapverse5-2" data-name="Tier2-Heapverse5" class="cls-4" cx="1240.48" cy="156.76" r="12"/>
      <circle id="Tier2-Heapverse4-2" data-name="Tier2-Heapverse4" class="cls-4" cx="1240.48" cy="193.56" r="12"/>
      <circle id="Tier2-Heapverse3-2" data-name="Tier2-Heapverse3" class="cls-5" cx="1212.4" cy="261.4" r="12"/>
      <circle id="Tier2-Heapverse2-2" data-name="Tier2-Heapverse2" class="cls-3" cx="1185.36" cy="287.4" r="12"/>
      <circle id="Tier2-Heapverse1-2" data-name="Tier2-Heapverse1" class="cls-4" cx="1118.56" cy="315.48" r="12"/>
      <circle id="Tier1-Heapverse8-2" data-name="Tier1-Heapverse8" class="cls-4" cx="1032.24" cy="243.08" r="24"/>
      <circle id="Tier1-Heapverse7-2" data-name="Tier1-Heapverse7" class="cls-5" cx="1004.16" cy="175.16" r="24"/>
      <circle id="Tier1-Heapverse6-2" data-name="Tier1-Heapverse6" class="cls-4" cx="1032.24" cy="107.24" r="24"/>
      <circle id="Tier1-Heapverse5-2" data-name="Tier1-Heapverse5" class="cls-3" cx="1100.16" cy="79.16" r="24"/>
      <circle id="Tier1-Heapverse4-2" data-name="Tier1-Heapverse4" class="cls-4" cx="1168.08" cy="107.24" r="24"/>
      <circle id="Tier1-Heapverse3-2" data-name="Tier1-Heapverse3" class="cls-5" cx="1196.16" cy="175.16" r="24"/>
      <circle id="Tier1-Heapverse2-2" data-name="Tier1-Heapverse2" class="cls-4" cx="1168.08" cy="243.08" r="24"/>
      <circle id="Tier1-Heapverse1-2" data-name="Tier1-Heapverse1" class="cls-3" cx="1100.16" cy="271.16" r="24"/>
      <circle id="Tier0-Heapverse3-2" data-name="Tier0-Heapverse3" class="cls-6" cx="1086.3117" cy="167.1359" r="24.0009"/>
      <circle id="Tier0-Heapverse2-2" data-name="Tier0-Heapverse2" class="cls-3" cx="1114" cy="167.16" r="24"/>
      <circle id="Tier0-Heapverse1-2" data-name="Tier0-Heapverse1" class="cls-5" cx="1100.16" cy="191.16" r="24"/>
    </g>
    <g id="Heaps-2" data-name="Heaps">
      <circle id="Tier3-Heap2-2" data-name="Tier3-Heap2" class="cls-3" cx="939.52" cy="89.48" r="8"/>
      <circle id="Tier3-Heap1-2" data-name="Tier3-Heap1" class="cls-3" cx="1260.48" cy="88.92" r="8"/>
      <circle id="Tier2-Heap16-2" data-name="Tier2-Heap16" class="cls-5" cx="1081.76" cy="315.48" r="8"/>
      <circle id="Tier2-Heap15-2" data-name="Tier2-Heap15" class="cls-3" cx="1013.92" cy="287.16" r="8"/>
      <circle id="Tier2-Heap14-2" data-name="Tier2-Heap14" class="cls-3" cx="987.92" cy="261.4" r="8"/>
      <circle id="Tier2-Heap13-2" data-name="Tier2-Heap13" class="cls-4" cx="959.84" cy="193.56" r="8"/>
      <circle id="Tier2-Heap12-2" data-name="Tier2-Heap12" class="cls-4" cx="960.32" cy="156.12" r="8"/>
      <circle id="Tier2-Heap11-2" data-name="Tier2-Heap11" class="cls-5" cx="987.92" cy="88.92" r="8"/>
      <circle id="Tier2-Heap10-2" data-name="Tier2-Heap10" class="cls-5" cx="1013.92" cy="63.16" r="8"/>
      <circle id="Tier2-Heap9-2" data-name="Tier2-Heap9" class="cls-5" cx="1081.76" cy="34.84" r="8"/>
      <circle id="Tier2-Heap8-2" data-name="Tier2-Heap8" class="cls-5" cx="1118.56" cy="34.84" r="8"/>
      <circle id="Tier2-Heap7-2" data-name="Tier2-Heap7" class="cls-5" cx="1186.4" cy="63.16" r="8"/>
      <circle id="Tier2-Heap6-2" data-name="Tier2-Heap6" class="cls-5" cx="1212.4" cy="88.92" r="8"/>
      <circle id="Tier2-Heap5-2" data-name="Tier2-Heap5" class="cls-4" cx="1240.48" cy="156.76" r="8"/>
      <circle id="Tier2-Heap4-2" data-name="Tier2-Heap4" class="cls-4" cx="1240.48" cy="193.56" r="8"/>
      <circle id="Tier2-Heap3-2" data-name="Tier2-Heap3" class="cls-3" cx="1212.4" cy="261.4" r="8"/>
      <circle id="Tier2-Heap2-2" data-name="Tier2-Heap2" class="cls-3" cx="1185.36" cy="287.4" r="8"/>
      <circle id="Tier2-Heap1-2" data-name="Tier2-Heap1" class="cls-5" cx="1118.56" cy="315.48" r="8"/>
      <circle id="Tier1-Heap8-2" data-name="Tier1-Heap8" class="cls-3" cx="1032.24" cy="243.08" r="16"/>
      <circle id="Tier1-Heap7-2" data-name="Tier1-Heap7" class="cls-4" cx="1004.16" cy="175.16" r="16"/>
      <circle id="Tier1-Heap6-2" data-name="Tier1-Heap6" class="cls-3" cx="1032.24" cy="107.24" r="16"/>
      <circle id="Tier1-Heap5-2" data-name="Tier1-Heap5" class="cls-4" cx="1100.16" cy="79.16" r="16"/>
      <circle id="Tier1-Heap4-2" data-name="Tier1-Heap4" class="cls-3" cx="1168.08" cy="107.24" r="16"/>
      <circle id="Tier1-Heap3-2" data-name="Tier1-Heap3" class="cls-4" cx="1196.16" cy="175.16" r="16"/>
      <circle id="Tier1-Heap2-2" data-name="Tier1-Heap2" class="cls-3" cx="1168.08" cy="243.08" r="16"/>
      <circle id="Tier1-Heap1-2" data-name="Tier1-Heap1" class="cls-4" cx="1100.16" cy="271.16" r="16"/>
      <circle id="Tier0-Heap3-2" data-name="Tier0-Heap3" class="cls-7" cx="1086.3201" cy="167.1602" r="16" transform="translate(584.2131 1144.873) rotate(-71.565)"/>
      <circle id="Tier0-Heap2-2" data-name="Tier0-Heap2" class="cls-4" cx="1114" cy="167.16" r="16"/>
      <circle id="Tier0-Heap1-2" data-name="Tier0-Heap1" class="cls-4" cx="1100.16" cy="191.16" r="16"/>
    </g>
  </g>
</svg>
